<?xml version="1.0" encoding="UTF-8"?> <svg xmlns="http://www.w3.org/2000/svg" id="uuid-a8a7c195-bd17-4fce-abb0-ba732efb1a8e" data-name="Capa 1" viewBox="0 0 3176.29 813.93"><defs></defs><g><path class="uuid-2a229a7d-54cc-42b2-a296-af52a9605c30" d="M1540.55,485.22c-9.88,0-15.26,6.77-15.26,15.62l.12,56.28c0,.45-.56.65-.85.31l-54.13-64.19c-3.56-4.47-7.54-8.09-15.27-8.09-9.37,0-16.06,6.57-16.06,16.52v88.77c0,9.61,6.39,15.14,14.78,15.14,7.06,0,14.11-6.02,14.11-13.59v-57.83c0-.64.8-.93,1.21-.44l53.9,64.46c3.56,4.47,9.38,7.4,15.95,7.4,10.51,0,15.62-7.23,15.62-16.52v-89.4c0-7.57-6.75-14.43-14.11-14.43Z"></path><path class="uuid-2a229a7d-54cc-42b2-a296-af52a9605c30" d="M1724.45,578.47c-7.39,0-8.67,4.11-27.92,4.11-20.89,0-39.87-13.78-39.87-37.12s17.39-35.68,43.06-35.68c13.5,0,19.22,2.47,22.56,2.47,7.24,0,11.89-4.91,11.89-11.86,0-8.37-6.65-16.52-38.28-16.52-39.05,0-69.03,23.99-69.03,61.59s31.17,61.94,68.11,61.94c17.98,0,41.01-5.84,41.01-16.33,0-7.48-5.23-12.59-11.52-12.59Z"></path><path class="uuid-2a229a7d-54cc-42b2-a296-af52a9605c30" d="M1769.75,485.63c-8.08,0-14.81,6.51-14.81,14.56v90.81c0,8.05,6.73,14.56,14.81,14.56s14.81-6.51,14.81-14.56v-90.81c0-8.05-6.57-14.56-14.81-14.56Z"></path><path class="uuid-2a229a7d-54cc-42b2-a296-af52a9605c30" d="M1593.59,485.63c-8.08,0-14.81,6.51-14.81,14.56v90.81c0,8.05,6.73,14.56,14.81,14.56s14.81-6.51,14.81-14.56v-90.81c0-8.05-6.57-14.56-14.81-14.56Z"></path><path class="uuid-2a229a7d-54cc-42b2-a296-af52a9605c30" d="M1864.93,485.87h-42.27c-7.84,0-14.37,6.54-14.37,14.81v89.52c0,8.09,6.53,14.63,14.37,14.63s14.37-6.54,14.37-14.63v-19.97h28.71c10.33,0,22.99-2.63,30.19-9.83,10.49-10.49,13.98-17.88,13.98-32.35,0-13.08-4.46-22.08-12.42-30.05-8.52-8.52-20.42-12.13-32.57-12.13ZM1873.35,544.38c-3.44,2.05-7.95,2.86-12.47,2.86h-23.86v-37.22h23.86c4.51,0,9.03.82,12.68,3.07,4.51,2.66,7.52,7.57,7.52,15.54s-3.01,13.09-7.74,15.75Z"></path><path class="uuid-2a229a7d-54cc-42b2-a296-af52a9605c30" d="M2253.34,484.96h-28.69c-11.31,0-20.97,6.61-20.97,18.39v83.16c0,10.96,8.46,19.11,18.49,19.11h28.87c17.56,0,37.07-2.84,51.79-18.07,8.87-9.21,14.9-22.86,14.9-42.35s-6.03-32.96-14.9-42.17c-14.72-15.24-31.75-18.07-49.48-18.07ZM2280.43,571.51c-5.51,5.51-10.52,10.04-29.56,10.04h-18.73v-71.77h24.33c11.92,0,17.85,3.8,22.35,8.3,6.9,6.9,9.76,17.61,9.76,27.1,0,8.51-1.95,20.13-8.15,26.34Z"></path><path class="uuid-2a229a7d-54cc-42b2-a296-af52a9605c30" d="M2416.02,581.48h-49.61v-24.54h40.26c9.67,0,14.7-5.38,14.7-12.23,0-5.92-4.89-12.44-14.43-12.44h-40.51v-22.5h47.74c8.09,0,13.9-4.58,13.9-12.25s-4.96-12.56-14.93-12.56h-55.65c-12.89,0-19.63,6.75-19.63,17.21v86.24c0,11.86,7.68,17.21,17.17,17.21h59.57c9.76,0,13.87-4.62,13.87-12.29,0-6.29-4.24-11.85-12.45-11.85Z"></path><path class="uuid-2a229a7d-54cc-42b2-a296-af52a9605c30" d="M2617.5,485.17c-6.57,0-12.29,2.37-15.87,8.17l-32.79,39.55c-1.37,1.65-3.89,1.66-5.28.03l-33.64-39.58c-3.58-5.79-10.77-8.17-15.33-8.17-7.85,0-15.7,6.94-15.7,17.48v86.5c0,7.9,5,16.05,14.62,16.05s13.68-8.15,13.68-16.05v-56.45c0-.67.83-.98,1.27-.48,6.43,7.4,35.21,40.32,37.96,40.32,2.05,0,29.97-32.79,36.31-40.28.44-.51,1.28-.21,1.28.47v56.41c0,7.9,5.89,16.06,15.51,16.06s14.23-8.15,14.23-16.06v-86.12c0-11.31-8.94-17.85-16.24-17.85Z"></path><path class="uuid-2a229a7d-54cc-42b2-a296-af52a9605c30" d="M1270.39,485.17c-6.57,0-12.29,2.37-15.87,8.17l-32.79,39.55c-1.37,1.65-3.89,1.66-5.28.03l-33.64-39.58c-3.58-5.79-10.77-8.17-15.33-8.17-7.85,0-15.7,6.94-15.7,17.48v86.5c0,7.9,5,16.05,14.62,16.05s13.68-8.15,13.68-16.05v-56.45c0-.67.83-.98,1.27-.48,6.43,7.4,35.21,40.32,37.96,40.32,2.05,0,29.97-32.79,36.31-40.28.44-.51,1.28-.21,1.28.47v56.41c0,7.9,5.89,16.06,15.51,16.06s14.23-8.15,14.23-16.06v-86.12c0-11.31-8.94-17.85-16.24-17.85Z"></path><path class="uuid-2a229a7d-54cc-42b2-a296-af52a9605c30" d="M2734.39,503.07c-3.39-8.6-10.33-17.9-24.35-17.9s-21.51,11.45-24.9,20.22l-28.71,72.62c-.8,1.72-4.07,9.18-4.07,14.11,0,5.35,3.35,13.57,13.75,13.57,6.64,0,11.88-3.73,14.08-9.92l4.59-12.9h51.2l4.39,12.9c2.2,6.36,7.56,9.98,13.81,9.98,10.35,0,16.69-10.31,12.04-22.44l-31.82-80.24ZM2719.51,561.96h-19.09c-4.23,0-7.14-4.23-5.65-8.18l12.27-32.36c1.1-2.89,5.19-2.87,6.25.03l11.89,32.38c1.45,3.94-1.47,8.12-5.67,8.12Z"></path><path class="uuid-2a229a7d-54cc-42b2-a296-af52a9605c30" d="M1999.64,503.07c-3.39-8.6-10.33-17.9-24.35-17.9s-21.51,11.45-24.9,20.22l-28.71,72.62c-.8,1.72-4.07,9.18-4.07,14.11,0,5.35,3.35,13.57,13.75,13.57,6.64,0,11.88-3.73,14.08-9.92l4.59-12.9h51.2l4.39,12.9c2.2,6.36,7.56,9.98,13.81,9.98,10.35,0,16.69-10.31,12.04-22.44l-31.82-80.24ZM1984.76,561.96h-19.09c-4.23,0-7.14-4.23-5.65-8.18l12.27-32.36c1.1-2.89,5.19-2.87,6.25.03l11.89,32.38c1.45,3.94-1.47,8.12-5.67,8.12Z"></path><path class="uuid-2a229a7d-54cc-42b2-a296-af52a9605c30" d="M2880.06,578.38c-6.18,0-9.58,3.83-27.1,3.83-23.9,0-41.33-13.87-41.33-37.77,0-20.25,16.97-34.58,42.79-34.58,11.19,0,17.36,2.28,23.87,2.28,5.84,0,10.84-5.02,10.84-12.48,0-10.33-14.09-15.71-37.72-15.71-38.23,0-69.15,22.35-69.15,61.7s31.02,61.9,67.23,61.9c22.36,0,40.97-6.37,40.97-18.59,0-6.2-5.38-10.58-10.4-10.58Z"></path><path class="uuid-2a229a7d-54cc-42b2-a296-af52a9605c30" d="M3000.51,485.14c-8.25,0-14.82,6.31-14.82,14.11v55.72c0,9.03-.44,14.13-6.64,20.33-4.45,4.45-10.37,6.98-18.59,6.98-7.17,0-12.36-1.57-16.73-5.93-5.61-5.61-5.59-13.13-5.59-20.43v-56.66c0-7.8-6.57-14.11-14.82-14.11s-14.82,6.31-14.82,14.11v59.65c0,16.69,5.39,27.3,13.59,35.5,9.38,9.38,22.81,12.93,40.49,12.93s30.47-4.2,42.21-15.93c7.21-7.21,10.53-20.05,10.53-32.5v-59.65c0-7.8-6.74-14.11-14.82-14.11Z"></path><path class="uuid-2a229a7d-54cc-42b2-a296-af52a9605c30" d="M1401.07,485.14c-8.25,0-14.82,6.31-14.82,14.11v55.72c0,9.03-.44,14.13-6.64,20.33-4.45,4.45-10.37,6.98-18.59,6.98-7.17,0-12.36-1.57-16.73-5.93-5.61-5.61-5.59-13.13-5.59-20.43v-56.66c0-7.8-6.57-14.11-14.82-14.11s-14.82,6.31-14.82,14.11v59.65c0,16.69,5.39,27.3,13.59,35.5,9.38,9.38,22.81,12.93,40.49,12.93s30.47-4.2,42.21-15.93c7.21-7.21,10.53-20.05,10.53-32.5v-59.65c0-7.8-6.74-14.11-14.82-14.11Z"></path><path class="uuid-2a229a7d-54cc-42b2-a296-af52a9605c30" d="M2133.14,581.91h-43.1c-3.75,0-6.79-3.04-6.79-6.79v-76.06c0-7.7-6.39-13.92-14.41-13.92s-14.41,6.22-14.41,13.92v89.66c0,10.83,8.03,16.91,17.15,16.91h61.49c6.87,0,12.27-4.75,12.28-11.78.01-6.64-5.57-11.94-12.21-11.94Z"></path><path class="uuid-2a229a7d-54cc-42b2-a296-af52a9605c30" d="M3117.57,581.91h-43.1c-3.75,0-6.79-3.04-6.79-6.79v-76.06c0-7.7-6.39-13.92-14.41-13.92s-14.41,6.22-14.41,13.92v89.66c0,10.83,8.03,16.91,17.15,16.91h61.49c6.87,0,12.27-4.75,12.28-11.78.01-6.64-5.57-11.94-12.21-11.94Z"></path><path class="uuid-2a229a7d-54cc-42b2-a296-af52a9605c30" d="M1412.16,388.13c52.26,0,97.62-36.41,97.62-94.13s-45.36-94.67-97.62-94.67-97.89,37.22-97.89,94.67,45.36,94.13,97.89,94.13ZM1411.92,246.67c25.72,0,43.91,19.77,43.91,47.14s-18.2,46.89-43.91,46.89-44.16-19.52-44.16-46.89,18.44-47.14,44.16-47.14Z"></path><path class="uuid-2a229a7d-54cc-42b2-a296-af52a9605c30" d="M2085.37,294c0-57.45-45.36-94.67-97.62-94.67s-97.89,37.22-97.89,94.67,45.36,94.13,97.89,94.13,97.62-36.41,97.62-94.13ZM1943.35,293.81c0-27.37,18.44-47.14,44.16-47.14s43.91,19.77,43.91,47.14-18.2,46.89-43.91,46.89-44.16-19.52-44.16-46.89Z"></path><path class="uuid-2a229a7d-54cc-42b2-a296-af52a9605c30" d="M2818.23,388.13c52.26,0,97.62-36.41,97.62-94.13s-45.36-94.67-97.62-94.67-97.89,37.22-97.89,94.67,45.36,94.13,97.89,94.13ZM2817.99,246.67c25.72,0,43.91,19.77,43.91,47.14s-18.2,46.89-43.91,46.89-44.16-19.52-44.16-46.89,18.44-47.14,44.16-47.14Z"></path><path class="uuid-2a229a7d-54cc-42b2-a296-af52a9605c30" d="M2226.47,385.28c14.86,0,26.42-11.87,26.42-25.93,0-5.02-1.39-9.7-3.65-13.15l-16.7-21.93c-.37-.48-.19-1.17.35-1.43,5.71-2.62,32.04-16.8,32.04-55.81,0-19.12-6.13-34.41-18.79-47.07-12.74-12.74-33.52-18.17-58.88-18.17h-53.37c-18.52,0-31.34,10.78-31.34,29.01v129.35c0,15.66,13.14,25.14,24.85,25.14,16.69,0,27.33-12.6,27.33-25.57v-25.08h23.72l25.91,36.21c4.52,7.17,11.92,14.44,22.11,14.44ZM2188.73,291.51h-34.01v-45.51h34.53c5.45,0,11.16,1.4,15.32,4.78,4.67,3.65,7.27,9.55,7.27,17.98s-3.12,14.89-8.05,18.54c-4.15,2.81-9.61,4.21-15.06,4.21Z"></path><path class="uuid-2a229a7d-54cc-42b2-a296-af52a9605c30" d="M1579.39,334.63h23.72l25.91,36.21c4.52,7.17,11.92,14.44,22.11,14.44,14.86,0,26.42-11.87,26.42-25.93,0-5.02-1.39-9.7-3.65-13.15l-16.7-21.93c-.37-.48-.19-1.17.35-1.43,5.71-2.62,32.04-16.8,32.04-55.81,0-19.12-6.13-34.41-18.79-47.07-12.74-12.74-33.52-18.17-58.88-18.17h-53.37c-18.52,0-31.34,10.78-31.34,29.01v129.35c0,15.66,13.14,25.14,24.85,25.14,16.69,0,27.33-12.6,27.33-25.57v-25.08ZM1579.39,246h34.53c5.45,0,11.16,1.4,15.32,4.78,4.67,3.65,7.27,9.55,7.27,17.98s-3.12,14.89-8.05,18.54c-4.15,2.81-9.61,4.21-15.06,4.21h-34.01v-45.51Z"></path><path class="uuid-2a229a7d-54cc-42b2-a296-af52a9605c30" d="M2409.11,231.73c-3.63-11.25-18.23-29.4-43.27-29.4-22.94,0-38.27,15.33-42.28,27.75l-45.91,117.9c-2.81,7.71-2.85,19.7,5.89,28.44,5.54,5.54,12.3,8.18,18.4,8.18,10.49,0,20.71-6.48,25.3-16.71,2.52-5.64,5.25-13.71,14.64-13.71,5.57,0,44.87-.06,48.22-.06,7.17,0,10.83,4.61,13.86,12.96,3.44,9.69,12.58,17.64,23.29,17.64,15.82,0,28.75-10.22,28.75-26.52,0-9.12-14.18-41.31-15.12-43.67l-31.77-82.81ZM2380.43,313.56h-28.81c-3.33,0-5.68-3.28-4.6-6.43l18.09-53.04c.39-1.15,2.03-1.15,2.41.01l17.53,53.07c1.04,3.15-1.3,6.39-4.62,6.39Z"></path><path class="uuid-2a229a7d-54cc-42b2-a296-af52a9605c30" d="M2673.67,384.79c17.36,0,26.67-15.64,26.67-27.92v-127.36c0-13.05-10.67-27.55-26.67-27.55-14.54,0-26.67,12.77-26.67,26.27v129.36c0,17.15,13.74,27.19,26.67,27.19Z"></path><path class="uuid-2a229a7d-54cc-42b2-a296-af52a9605c30" d="M2958.2,384.33c15.47,0,26.66-12.54,26.66-24.41v-70.69c0-.54.67-.79,1.02-.38l76.15,86.24c5.18,6.24,12,9.25,21.48,9.25,18.49,0,28.46-12.34,28.46-26.91v-128.02c0-13.5-10.08-27.13-25.78-27.13-17.4,0-26.28,13.38-26.28,27.37l.23,68.3c-.04,1.06-1.35,1.51-2.04.7l-70.62-83.44c-5.53-7.02-13.08-12.93-25.34-12.93-18.28,0-29.38,10.34-29.38,28.22v129.43c0,11.87,10.74,24.41,25.44,24.41Z"></path><path class="uuid-2a229a7d-54cc-42b2-a296-af52a9605c30" d="M1769.42,360.16v-24.81h38.92c19.71,0,37.07-4.29,52.2-19.42,12.6-12.6,19.08-26.52,19.08-48.76,0-19.03-5.17-32.71-19.22-46.76-11.74-11.74-30.17-18.13-53.89-18.13h-50.78c-21.26,0-38.86,14.48-38.86,37.47v117.5c0,15.45,10.95,27.37,27.49,27.37,13.62,0,25.06-13.14,25.06-24.45ZM1770.4,245.94h30.2c5.71,0,11.43,1,16.05,3.76,5.71,3.26,9.52,9.27,9.52,19.03s-3.81,16.03-9.79,19.28c-4.35,2.5-10.07,3.51-15.78,3.51h-30.2v-45.57Z"></path><path class="uuid-2a229a7d-54cc-42b2-a296-af52a9605c30" d="M2808.17,186.09h28.1c2.01,0,3.83-.55,4.74-1.46s46.15-49.02,48.47-51.35c2.33-2.33,2.9-6.23.14-8.98-1.67-1.67-3.69-2.44-8.84-2.44h-48.17c-5.2,0-6.96,4.01-7.78,6.02-.82,2.01-21.44,47.15-21.44,47.15,0,0-1.4,2.96-1.4,5.01,0,4.5,3.86,6.05,6.17,6.05Z"></path><path class="uuid-2a229a7d-54cc-42b2-a296-af52a9605c30" d="M1284.07,337.21c-10.49,0-12.13,4.02-33.58,4.02-29.09,0-57.65-14.89-57.65-48.29,0-14.57,4.39-26.14,14.78-34.59,10.41-8.47,27.37-13.55,43.13-13.55,12.77,0,21.77,3.6,28.45,3.6,13.75,0,22.71-10.12,22.71-21.14,0-7.23-2.14-14.16-9-18.68-9.25-6.09-27.2-9.24-46.04-9.24-26.04,0-60.19,7.35-83.23,30.39-18.49,18.49-25.35,41.21-25.35,63.21,0,26.17,10.62,51.91,30.7,69.2,18.68,16.07,44.29,24.93,72.11,24.93,19.03,0,47.44-3.17,57.39-13.12,3.23-3.23,6.04-7.21,6.04-16.15,0-9.85-8.41-20.57-20.46-20.57Z"></path><path class="uuid-2a229a7d-54cc-42b2-a296-af52a9605c30" d="M2623.47,373.93c3.23-3.23,6.04-7.21,6.04-16.15,0-9.85-8.41-20.57-20.46-20.57-10.49,0-12.13,4.02-33.58,4.02-29.09,0-57.65-14.89-57.65-48.29,0-14.57,4.39-26.14,14.78-34.59,10.41-8.47,27.37-13.55,43.13-13.55,12.77,0,21.77,3.6,28.45,3.6,13.75,0,22.71-10.12,22.71-21.14,0-7.23-2.14-14.16-9-18.68-9.25-6.09-27.2-9.24-46.04-9.24-26.04,0-60.19,7.35-83.23,30.39-18.49,18.49-25.35,41.21-25.35,63.21,0,26.17,10.62,51.91,30.7,69.2,18.68,16.07,44.29,24.93,72.11,24.93,19.03,0,47.44-3.17,57.39-13.12Z"></path></g><path class="uuid-2a229a7d-54cc-42b2-a296-af52a9605c30" d="M993.07,502.11c0-257.77-211.64-466.74-472.71-466.74S47.64,244.34,47.64,502.11c0,68.29,14.85,133.15,41.54,191.61.72,1.58,2.61,2.27,4.18,1.52h0c1.47-.7,2.16-2.41,1.59-3.93-18.79-50.12-29.07-104.43-29.07-161.15,0-252.54,203.74-457.27,455.06-457.27s455.06,204.73,455.06,457.27c0,57.06-10.41,111.68-29.41,162.05-.46,1.23.07,2.6,1.24,3.19h0c1.29.65,2.87.1,3.47-1.22,26.83-58.58,41.76-123.6,41.76-192.07Z"></path><path class="uuid-2a229a7d-54cc-42b2-a296-af52a9605c30" d="M524.24,652.11c-109.21,0-308.16,17.88-435.86,109.72-1.44,1.04-1.81,3.03-.84,4.52h0c.98,1.51,2.97,1.97,4.51,1.05.18-.1.35-.21.53-.31,87.95-51.82,254.33-91.05,431.43-91.05s341.91,35.43,432.71,90.69c.66.4,1.3.79,1.91,1.17,1.6.99,3.7.52,4.73-1.05h0c1.04-1.59.62-3.72-.95-4.78-104.72-70.56-260.76-109.94-438.16-109.94Z"></path><g><circle class="uuid-2a229a7d-54cc-42b2-a296-af52a9605c30" cx="255.71" cy="351.38" r="28.24"></circle><circle class="uuid-2a229a7d-54cc-42b2-a296-af52a9605c30" cx="787.77" cy="351.38" r="28.24"></circle><circle class="uuid-2a229a7d-54cc-42b2-a296-af52a9605c30" cx="653.85" cy="222.93" r="38.1"></circle><circle class="uuid-2a229a7d-54cc-42b2-a296-af52a9605c30" cx="381.62" cy="222.93" r="38.1"></circle><path class="uuid-2a229a7d-54cc-42b2-a296-af52a9605c30" d="M395.14,283.87c-21.9,0-41.48,14.11-41.48,36.07v223.97c0,19.89,12.78,40.4,35.03,40.4,31.02,0,41.84-20.51,41.84-40.4v-110.69c0-1.69,1.92-2.47,2.94-1.2,11.52,14.42,53.11,67.37,74.24,90.53v-113.31c-18.85-26.09-78.66-108.73-84.13-114.2-6.8-6.8-14.94-11.16-28.45-11.16Z"></path><path class="uuid-2a229a7d-54cc-42b2-a296-af52a9605c30" d="M643.52,283.62c-17.69,0-24.4,6.24-31.57,13.41l-82.88,113.95v113.59c19.52-21.88,62.98-77.42,74.69-92.44,1.01-1.3,2.95-.52,2.95,1.18v110.6c0,19.89,13.89,40.42,41.44,40.42,22.25,0,36.67-20.53,36.67-40.42v-220.76c0-22.73-18.67-39.51-41.31-39.51Z"></path><path class="uuid-2a229a7d-54cc-42b2-a296-af52a9605c30" d="M259.76,390.28c-14.19,0-26.88,9.11-26.88,23.29v144.64c0,12.85,8.28,26.09,22.71,26.09,20.1,0,27.12-13.24,27.12-26.09v-68.17c0-1.09,1.24-1.6,1.9-.78,7.47,9.31,34.42,43.51,48.12,58.47v-76.5c-12.22-16.85-50.98-70.22-54.53-73.75-4.4-4.39-9.69-7.21-18.44-7.21Z"></path><path class="uuid-2a229a7d-54cc-42b2-a296-af52a9605c30" d="M778.73,390.12c-11.46,0-15.81,4.03-20.46,8.66l-53.72,73.59v76.68c12.65-14.13,40.82-50,48.41-59.7.65-.84,1.92-.33,1.92.76v68.11c0,12.85,9,26.1,26.86,26.1,14.42,0,23.77-13.26,23.77-26.1v-142.58c0-14.68-12.1-25.52-26.77-25.52Z"></path></g></svg>